<?xml version="1.0" encoding="UTF-8"?>
<svg width="48px" height="32px" viewBox="0 0 48 32" version="1.1" xmlns="http://www.w3.org/2000/svg">
    <g stroke="none" stroke-width="1" fill="none" fill-rule="evenodd">
        <rect fill="#FFFFFF" x="0" y="0" width="48" height="32" rx="4"></rect>
        <path d="M44,0 L4,0 C1.8,0 0,1.8 0,4 L0,28 C0,30.2 1.8,32 4,32 L44,32 C46.2,32 48,30.2 48,28 L48,4 C48,1.8 46.2,0 44,0 Z" fill="#3F3F3F"></path>
        <circle fill="#EB001B" cx="19" cy="16" r="8"></circle>
        <circle fill="#F79E1B" cx="29" cy="16" r="8"></circle>
        <path d="M24,21.2 C26.5,19.3 26.5,12.7 24,10.8 C21.5,12.7 21.5,19.3 24,21.2 Z" fill="#FF5F00"></path>
    </g>
</svg>
