<?xml version="1.0" encoding="UTF-8"?>
<svg width="48px" height="32px" viewBox="0 0 48 32" version="1.1" xmlns="http://www.w3.org/2000/svg">
    <g stroke="none" stroke-width="1" fill="none" fill-rule="evenodd">
        <rect fill="#FFFFFF" x="0" y="0" width="48" height="32" rx="4"></rect>
        <path d="M44,0 L4,0 C1.8,0 0,1.8 0,4 L0,28 C0,30.2 1.8,32 4,32 L44,32 C46.2,32 48,30.2 48,28 L48,4 C48,1.8 46.2,0 44,0 Z" fill="#F5F5F5"></path>
        <path d="M32.6,8.3 C32.2,6.6 30.7,5.3 29,5.3 L21.1,5.3 C20.5,5.3 20,5.7 19.9,6.3 L17.1,23.2 C17,23.6 17.3,24 17.7,24 L21.6,24 L22.5,18.5 L22.5,18.8 C22.6,18.2 23.1,17.8 23.7,17.8 L25.9,17.8 C29.2,17.8 31.8,15.7 32.4,12.5 C32.7,11 32.8,9.5 32.6,8.3" fill="#002C8A"></path>
        <path d="M15.3,11.9 L15.2,12.4 C15.1,12.8 15.4,13.2 15.8,13.2 L17.9,13.2 C18.5,13.2 19,12.8 19.1,12.2 L19.4,10.5 C19.5,9.9 19,9.5 18.4,9.5 L16,9.5 C15.6,9.5 15.4,9.7 15.3,11.9" fill="#009CDE"></path>
        <path d="M29.7,11.9 L29.6,12.4 C29.5,12.8 29.8,13.2 30.2,13.2 L32.3,13.2 C32.9,13.2 33.4,12.8 33.5,12.2 L33.8,10.5 C33.9,9.9 33.4,9.5 32.8,9.5 L30.4,9.5 C30,9.5 29.8,9.7 29.7,11.9" fill="#012169"></path>
    </g>
</svg>
