<?xml version="1.0" encoding="UTF-8"?>
<svg width="48px" height="32px" viewBox="0 0 48 32" version="1.1" xmlns="http://www.w3.org/2000/svg">
    <g stroke="none" stroke-width="1" fill="none" fill-rule="evenodd">
        <rect fill="#FFFFFF" x="0" y="0" width="48" height="32" rx="4"></rect>
        <path d="M44,0 L4,0 C1.8,0 0,1.8 0,4 L0,28 C0,30.2 1.8,32 4,32 L44,32 C46.2,32 48,30.2 48,28 L48,4 C48,1.8 46.2,0 44,0 Z" id="Path" fill="#2566AF"></path>
        <path d="M17.5,13.7 L15.3,18.4 L13.1,13.7 L10.9,13.7 L14.4,21.3 L16.2,21.3 L19.7,13.7 L17.5,13.7 Z M21.3,21.3 L23.4,21.3 L23.4,13.7 L21.3,13.7 L21.3,21.3 Z M27.8,15.7 C27.2,15.3 26.4,15 25.5,15 C23.7,15 22.4,16.2 22.4,18 C22.4,19.8 23.7,21 25.5,21 C26.4,21 27.2,20.7 27.8,20.3 L27.8,18.9 C27.2,19.4 26.5,19.7 25.7,19.7 C24.6,19.7 23.8,19 23.8,18 C23.8,17 24.6,16.3 25.7,16.3 C26.5,16.3 27.2,16.6 27.8,17.1 L27.8,15.7 Z M34.7,17.4 C34.7,15.3 33.2,13.7 31.1,13.7 L28.7,13.7 L28.7,21.3 L30.8,21.3 L30.8,18.7 L30.9,18.7 L33,21.3 L35.5,21.3 L33,18.4 C34.1,18.1 34.7,17.1 34.7,17.4 Z M31.2,17.3 L30.8,17.3 L30.8,15.4 L31.2,15.4 C32,15.4 32.6,15.9 32.6,16.4 C32.6,16.9 32,17.3 31.2,17.3 Z" fill="#FFFFFF" fill-rule="nonzero"></path>
        <polygon fill="#FAA61A" points="37 21.3 39.1 21.3 37.4 13.7 35.5 13.7 33.8 21.3 35.9 21.3 36.2 20.2 38.1 20.2 38.4 21.3"></polygon>
        <path d="M36.5,18.9 L37.8,18.9 L37.1,16.5 L36.5,18.9 Z" fill="#FAA61A"></path>
    </g>
</svg>
